<svg width="95" height="94" viewBox="0 0 95 94" fill="none" xmlns="http://www.w3.org/2000/svg">
<g filter="url(#filter0_d_74_655)">
<rect x="47.6055" y="10.7506" width="44.887" height="44.887" rx="16.5104" transform="rotate(45 47.6055 10.7506)" stroke="white" stroke-width="1.06154" shape-rendering="crispEdges"/>
</g>
<path d="M60.1111 34.3203H38.0162C36.7198 34.3203 35.6602 35.3753 35.6602 36.6764V50.8129C35.6602 52.1145 36.7204 53.169 38.0162 53.169H60.1111C61.4076 53.169 62.4672 52.1141 62.4672 50.8129V36.6764C62.4672 35.3749 61.4071 34.3203 60.1111 34.3203ZM59.7493 35.891C58.9876 36.6553 50.0399 45.6322 49.6723 46.001C49.3653 46.3089 48.7623 46.3091 48.4551 46.001L38.378 35.891H59.7493ZM37.2309 50.5242V36.9652L43.9884 43.7447L37.2309 50.5242ZM38.378 51.5983L45.0973 44.8572L47.3426 47.1098C48.2628 48.033 49.865 48.0326 50.7848 47.1098L53.0301 44.8572L59.7493 51.5983H38.378ZM60.8965 50.5242L54.139 43.7447L60.8965 36.9652V50.5242Z" fill="white"/>
<defs>
<filter id="filter0_d_74_655" x="0.943005" y="0.073935" width="93.3249" height="93.3259" filterUnits="userSpaceOnUse" color-interpolation-filters="sRGB">
<feFlood flood-opacity="0" result="BackgroundImageFix"/>
<feColorMatrix in="SourceAlpha" type="matrix" values="0 0 0 0 0 0 0 0 0 0 0 0 0 0 0 0 0 0 127 0" result="hardAlpha"/>
<feOffset dy="4.24616"/>
<feGaussianBlur stdDeviation="10.6154"/>
<feComposite in2="hardAlpha" operator="out"/>
<feColorMatrix type="matrix" values="0 0 0 0 0 0 0 0 0 0 0 0 0 0 0 0 0 0 0.05 0"/>
<feBlend mode="normal" in2="BackgroundImageFix" result="effect1_dropShadow_74_655"/>
<feBlend mode="normal" in="SourceGraphic" in2="effect1_dropShadow_74_655" result="shape"/>
</filter>
</defs>
</svg>
