<svg width="95" height="94" viewBox="0 0 95 94" fill="none" xmlns="http://www.w3.org/2000/svg">
<g filter="url(#filter0_d_74_652)">
<rect x="47.5469" y="10.7506" width="44.887" height="44.887" rx="16.5104" transform="rotate(45 47.5469 10.7506)" stroke="white" stroke-width="1.06154" shape-rendering="crispEdges"/>
</g>
<path d="M54.9053 55.0961C50.2059 55.0961 45.1875 53.3693 41.2637 49.4456C37.3465 45.5283 35.6133 40.5133 35.6133 35.8041C35.6133 31.6538 38.9711 28.2891 43.1283 28.2891C43.4495 28.2891 43.7382 28.4846 43.8575 28.7827L47.2224 37.1949C47.3835 37.5976 47.1876 38.0546 46.7849 38.2157L43.0886 39.6942C43.3501 43.9466 46.7635 47.3598 51.0152 47.6209L52.4937 43.9246C52.6544 43.5225 53.1113 43.3259 53.5146 43.4871L61.9266 46.8519C62.2248 46.9712 62.4203 47.2599 62.4203 47.5811C62.4203 51.7314 59.0625 55.0961 54.9053 55.0961ZM42.6056 29.8823C39.5978 30.1426 37.184 32.6648 37.184 35.8041C37.184 40.5376 39.0273 44.9879 42.3744 48.3349C45.7215 51.682 50.1717 53.5254 54.9053 53.5254C58.0435 53.5254 60.5667 51.113 60.8271 48.1038L53.6604 45.2371L52.2696 48.7139C52.1504 49.0121 51.8616 49.2076 51.5404 49.2076C46.0047 49.2076 41.5018 44.7047 41.5018 39.1698C41.5018 38.8487 41.6973 38.559 41.9955 38.4398L45.4723 37.049L42.6056 29.8823Z" fill="white"/>
<defs>
<filter id="filter0_d_74_652" x="0.884411" y="0.073935" width="93.3249" height="93.3259" filterUnits="userSpaceOnUse" color-interpolation-filters="sRGB">
<feFlood flood-opacity="0" result="BackgroundImageFix"/>
<feColorMatrix in="SourceAlpha" type="matrix" values="0 0 0 0 0 0 0 0 0 0 0 0 0 0 0 0 0 0 127 0" result="hardAlpha"/>
<feOffset dy="4.24616"/>
<feGaussianBlur stdDeviation="10.6154"/>
<feComposite in2="hardAlpha" operator="out"/>
<feColorMatrix type="matrix" values="0 0 0 0 0 0 0 0 0 0 0 0 0 0 0 0 0 0 0.05 0"/>
<feBlend mode="normal" in2="BackgroundImageFix" result="effect1_dropShadow_74_652"/>
<feBlend mode="normal" in="SourceGraphic" in2="effect1_dropShadow_74_652" result="shape"/>
</filter>
</defs>
</svg>
