<svg width="95" height="94" viewBox="0 0 95 94" fill="none" xmlns="http://www.w3.org/2000/svg">
<g filter="url(#filter0_d_74_649)">
<rect x="47.4922" y="10.7506" width="44.887" height="44.887" rx="16.5104" transform="rotate(45 47.4922 10.7506)" stroke="white" stroke-width="1.06154" shape-rendering="crispEdges"/>
</g>
<path d="M46.1764 54.2096V56.902L45.5254 56.3761C45.4248 56.2948 43.0313 54.3516 40.6042 51.5651C37.2562 47.7211 35.5586 44.2706 35.5586 41.3097V41.0163C35.5586 35.1616 40.3217 30.3984 46.1764 30.3984C52.0311 30.3984 56.7942 35.1616 56.7942 41.0163V41.3097C56.7942 41.5584 56.781 41.8109 56.7571 42.0664L54.6807 40.1721C54.2554 35.8546 50.6039 32.4702 46.1764 32.4702C41.4642 32.4702 37.6304 36.304 37.6304 41.0163V41.3097C37.6304 46.3132 44.0771 52.3703 46.1764 54.2096ZM52.5471 52.7216H55.6546V49.614H52.5471V52.7216ZM46.1764 36.6137C48.6039 36.6137 50.5789 38.5888 50.5789 41.0163C50.5789 43.4438 48.6039 45.4188 46.1764 45.4188C43.7489 45.4188 41.7739 43.4438 41.7739 41.0163C41.7739 38.5888 43.7489 36.6137 46.1764 36.6137ZM46.1764 38.6855C44.8912 38.6855 43.8457 39.731 43.8457 41.0163C43.8457 42.3013 44.8912 43.347 46.1764 43.347C47.4615 43.347 48.5072 42.3013 48.5072 41.0163C48.5072 39.731 47.4615 38.6855 46.1764 38.6855ZM60.7459 51.3138L60.1634 50.7825V54.1084C60.1634 55.6571 58.9033 56.917 57.3546 56.917H50.7953C49.2466 56.917 47.9865 55.6571 47.9865 54.1084V50.7825L47.4041 51.3138L46.0079 49.7834L54.0749 42.4238L62.1421 49.7834L60.7459 51.3138ZM58.0916 48.8924L54.0749 45.2281L50.0583 48.8924V54.1082C50.0583 54.5147 50.3889 54.8453 50.7953 54.8453H57.3546C57.7611 54.8453 58.0916 54.5147 58.0916 54.1082V48.8924Z" fill="white"/>
<defs>
<filter id="filter0_d_74_649" x="0.829723" y="0.073935" width="93.3249" height="93.3259" filterUnits="userSpaceOnUse" color-interpolation-filters="sRGB">
<feFlood flood-opacity="0" result="BackgroundImageFix"/>
<feColorMatrix in="SourceAlpha" type="matrix" values="0 0 0 0 0 0 0 0 0 0 0 0 0 0 0 0 0 0 127 0" result="hardAlpha"/>
<feOffset dy="4.24616"/>
<feGaussianBlur stdDeviation="10.6154"/>
<feComposite in2="hardAlpha" operator="out"/>
<feColorMatrix type="matrix" values="0 0 0 0 0 0 0 0 0 0 0 0 0 0 0 0 0 0 0.05 0"/>
<feBlend mode="normal" in2="BackgroundImageFix" result="effect1_dropShadow_74_649"/>
<feBlend mode="normal" in="SourceGraphic" in2="effect1_dropShadow_74_649" result="shape"/>
</filter>
</defs>
</svg>
