<svg width="58" height="40" viewBox="0 0 58 40" fill="none" xmlns="http://www.w3.org/2000/svg">
<path d="M39.0047 19.3939C39.0047 33.4521 31.538 40 18.9912 40C6.44447 40 0.265625 35.2703 0.265625 21.2121C0.265625 7.15396 4.82175 0 17.3685 0C29.9153 0 39.0047 5.33578 39.0047 19.3939Z" fill="#D71920" fill-opacity="0.21"/>
<g clip-path="url(#clip0_64_9)">
<path d="M56.9118 21.1356C57.7041 22.3714 57.9405 23.8935 57.5606 25.3114C57.1807 26.7293 56.2149 27.9292 54.9108 28.6034C54.3468 28.8949 53.9243 29.392 53.7807 29.933C53.5594 30.7671 52.7037 31.264 51.8695 31.0422C51.0354 30.8208 50.5388 29.9651 50.7602 29.1309C51.1318 27.7314 52.1215 26.5271 53.4757 25.8272C54.0081 25.552 54.3868 25.0815 54.5419 24.5025C54.697 23.9237 54.6043 23.3269 54.2808 22.8223C53.1817 21.1078 53.1817 18.8922 54.2808 17.1777C54.6043 16.6731 54.697 16.0763 54.5419 15.4975C54.3867 14.9185 54.0081 14.448 53.4756 14.1728C51.6665 13.2376 50.5588 11.3189 50.6533 9.28442C50.6811 8.68578 50.4631 8.12261 50.0393 7.69883C49.6155 7.27497 49.0527 7.05589 48.4536 7.08479C46.4192 7.17855 44.5005 6.07167 43.5652 4.26247C43.29 3.73009 42.8196 3.35139 42.2406 3.1963C41.6616 3.04121 41.0649 3.13395 40.5604 3.45741C38.8458 4.55655 36.6302 4.55655 34.9157 3.45741C34.4111 3.13395 33.8144 3.04136 33.2354 3.1963C32.6565 3.35139 32.1861 3.73009 31.9109 4.26247C30.9755 6.07159 29.0559 7.1784 27.0224 7.08479C26.4233 7.05682 25.8606 7.27512 25.4368 7.69883C25.013 8.12253 24.7949 8.68578 24.8227 9.28449C24.9174 11.3189 23.8095 13.2377 22.0004 14.1728C21.468 14.448 21.0893 14.9185 20.9342 15.4975C20.7792 16.0763 20.8718 16.6731 21.1954 17.1777C22.2944 18.8922 22.2944 21.1078 21.1954 22.8223C20.8718 23.3269 20.7792 23.9237 20.9342 24.5025C21.0894 25.0815 21.468 25.552 22.0005 25.8272C23.8096 26.7624 24.9174 28.6811 24.8228 30.7156C24.795 31.3142 25.0131 31.8774 25.4369 32.3012C25.8606 32.725 26.4236 32.9437 27.0225 32.9152C29.0562 32.8212 30.9756 33.9282 31.9109 35.7375C32.1861 36.2699 32.6565 36.6486 33.2355 36.8037C33.8145 36.9587 34.4112 36.866 34.9157 36.5426C36.6303 35.4434 38.8459 35.4434 40.5604 36.5426C41.0651 36.8661 41.6618 36.9587 42.2407 36.8037C42.8196 36.6486 43.29 36.2699 43.5653 35.7375C44.2931 34.3296 45.5574 33.3848 47.1255 33.077C47.9725 32.911 48.7936 33.4627 48.9597 34.3094C49.1259 35.1563 48.5742 35.9776 47.7273 36.1438C47.0879 36.2692 46.6346 36.6058 46.3416 37.1726C45.6675 38.4767 44.4676 39.4426 43.0497 39.8224C41.6318 40.2024 40.1097 39.966 38.8738 39.1736C38.1839 38.7312 37.2924 38.7313 36.6026 39.1736C35.7536 39.7178 34.7694 39.9998 33.7768 39.9999C33.3245 39.9999 32.8706 39.9414 32.4268 39.8224C31.0088 39.4426 29.809 38.4767 29.1349 37.1727C28.7586 36.4448 27.9869 35.9985 27.1679 36.0371C25.7017 36.1053 24.2651 35.5491 23.2272 34.511C22.1891 33.4731 21.633 32.0367 21.7011 30.5703C21.7392 29.7517 21.2934 28.9797 20.5655 28.6033C19.2615 27.9291 18.2957 26.7293 17.9157 25.3113C17.5358 23.8933 17.7723 22.3714 18.5645 21.1356C19.0068 20.4457 19.0068 19.5542 18.5645 18.8643C17.7723 17.6285 17.5358 16.1064 17.9157 14.6885C18.2957 13.2706 19.2615 12.0707 20.5655 11.3965C21.2935 11.0203 21.7392 10.2482 21.7012 9.42958C21.633 7.96314 22.1892 6.52686 23.2272 5.48881C24.2652 4.45084 25.7011 3.89525 27.168 3.96284C27.9856 4.00143 28.7587 3.55523 29.135 2.8272C29.8091 1.5232 31.009 0.557345 32.4269 0.177472C33.8448 -0.202323 35.3669 0.0340235 36.6028 0.826349C37.2926 1.26857 38.1841 1.26849 38.8741 0.826349C40.1098 0.0341016 41.6318 -0.202557 43.0498 0.177472C44.4678 0.557345 45.6676 1.5232 46.3417 2.8272C46.718 3.55515 47.4892 4.00042 48.3087 3.96284C49.7748 3.89424 51.2115 4.45077 52.2494 5.48889C53.2875 6.52686 53.8436 7.96322 53.7755 9.42958C53.7374 10.2482 54.1832 11.0202 54.9111 11.3966C56.2151 12.0708 57.1809 13.2706 57.5609 14.6886C57.9408 16.1065 57.7043 17.6286 56.9121 18.8644C56.4695 19.5542 56.4695 20.4457 56.9118 21.1356ZM37.7397 30.3914C38.6027 30.3914 39.3023 29.6918 39.3023 28.8288V27.924C41.4518 27.625 43.0541 25.8651 43.0541 23.6721V22.7222C43.0541 21.5414 42.5919 20.4384 41.7527 19.6164C40.9251 18.8057 39.8233 18.3592 38.6502 18.3592H37.2183C36.5299 18.3592 35.9484 17.751 35.9484 17.031V16.4611C35.9484 15.7615 36.4943 15.234 37.2183 15.234H38.5724C38.9704 15.234 39.382 15.5004 39.382 15.9462C39.382 16.8093 40.0816 17.5089 40.9446 17.5089C41.8076 17.5089 42.5072 16.8093 42.5072 15.9462C42.5072 14.0735 41.1243 12.5108 39.3023 12.176V11.1712C39.3023 10.3082 38.6027 9.60858 37.7397 9.60858C36.8766 9.60858 36.177 10.3082 36.177 11.1712V12.2297C35.4036 12.4122 34.6952 12.7979 34.1207 13.36C33.2839 14.1788 32.8231 15.2801 32.8231 16.4611V17.0309C32.8231 19.4866 34.7948 21.4844 37.2183 21.4844H38.6502C39.3672 21.4844 39.9289 22.028 39.9289 22.7221V23.6721C39.9289 24.4415 39.2856 24.844 38.6502 24.844H36.3231C35.9509 24.844 35.5504 24.6301 35.5504 24.1605C35.5504 23.2974 34.8508 22.5979 33.9877 22.5979C33.1247 22.5979 32.4251 23.2974 32.4251 24.1605C32.4251 26.2484 34.0617 27.893 36.177 27.9658V28.8287C36.177 29.6918 36.8766 30.3914 37.7397 30.3914Z" fill="#D71920"/>
</g>
<defs>
<clipPath id="clip0_64_9">
<rect width="40" height="40" fill="white" transform="translate(17.7383)"/>
</clipPath>
</defs>
</svg>
