<svg width="95" height="94" viewBox="0 0 95 94" fill="none" xmlns="http://www.w3.org/2000/svg">
<g filter="url(#filter0_d_71_639)">
<rect x="47.4922" y="11.3947" width="43.9486" height="43.9486" rx="16.0412" transform="rotate(45 47.4922 11.3947)" stroke="#D71920" stroke-width="2" shape-rendering="crispEdges"/>
</g>
<path d="M54.8506 55.0766C50.1512 55.0766 45.1328 53.3498 41.209 49.4261C37.2918 45.5088 35.5586 40.4938 35.5586 35.7846C35.5586 31.6342 38.9164 28.2695 43.0736 28.2695C43.3948 28.2695 43.6835 28.465 43.8028 28.7632L47.1677 37.1753C47.3288 37.5781 47.1329 38.0351 46.7302 38.1962L43.0339 39.6747C43.2954 43.927 46.7088 47.3402 50.9605 47.6013L52.439 43.9051C52.5998 43.503 53.0566 43.3064 53.4599 43.4676L61.8719 46.8324C62.1701 46.9516 62.3656 47.2404 62.3656 47.5615C62.3656 51.7119 59.0078 55.0766 54.8506 55.0766ZM42.5509 29.8628C39.5431 30.123 37.1293 32.6453 37.1293 35.7846C37.1293 40.5181 38.9726 44.9683 42.3197 48.3154C45.6668 51.6625 50.117 53.5058 54.8506 53.5058C57.9889 53.5058 60.512 51.0934 60.7724 48.0842L53.6057 45.2175L52.2149 48.6944C52.0957 48.9926 51.8069 49.1881 51.4857 49.1881C45.95 49.1881 41.4471 44.6851 41.4471 39.1503C41.4471 38.8291 41.6426 38.5395 41.9408 38.4202L45.4176 37.0295L42.5509 29.8628Z" fill="#D71920"/>
<defs>
<filter id="filter0_d_71_639" x="0.829723" y="0.0544038" width="93.3249" height="93.3259" filterUnits="userSpaceOnUse" color-interpolation-filters="sRGB">
<feFlood flood-opacity="0" result="BackgroundImageFix"/>
<feColorMatrix in="SourceAlpha" type="matrix" values="0 0 0 0 0 0 0 0 0 0 0 0 0 0 0 0 0 0 127 0" result="hardAlpha"/>
<feOffset dy="4.24616"/>
<feGaussianBlur stdDeviation="10.6154"/>
<feComposite in2="hardAlpha" operator="out"/>
<feColorMatrix type="matrix" values="0 0 0 0 0 0 0 0 0 0 0 0 0 0 0 0 0 0 0.05 0"/>
<feBlend mode="normal" in2="BackgroundImageFix" result="effect1_dropShadow_71_639"/>
<feBlend mode="normal" in="SourceGraphic" in2="effect1_dropShadow_71_639" result="shape"/>
</filter>
</defs>
</svg>
